<svg xmlns="http://www.w3.org/2000/svg" viewBox="0 0 80 13" xml:space="preserve"><path d="M10.8 3c0-.6.4-1 1-1h1c.6 0 1 .4 1 1v8c0 .6-.4 1-1 1h-1c-.6 0-1-.4-1-1zm5-2c0-.6.4-1 1-1h1c.6 0 1 .4 1 1v10c0 .6-.4 1-1 1h-1c-.6 0-1-.4-1-1zm-10 5.5c0-.6.4-1 1-1h1c.6 0 1 .4 1 1V11c0 .6-.4 1-1 1h-1c-.6 0-1-.4-1-1zM.8 9c0-.6.4-1 1-1h1c.6 0 1 .4 1 1v2c0 .6-.4 1-1 1h-1c-.6 0-1-.4-1-1z"/><path d="M35.3 2.6c2.5 0 4.8 1 6.6 2.7.1.1.3.1.5 0L43.7 4c.1-.1.1-.2.1-.3s0-.2-.1-.3c-4.7-4.6-12.1-4.6-16.8 0-.1.1-.1.2-.1.3s0 .2.1.3l1.3 1.3c.1.1.3.1.5 0 1.8-1.7 4.1-2.7 6.6-2.7m0 4c1.4 0 2.7.5 3.7 1.4.1.1.3.1.5 0l1.3-1.3c.1-.1.1-.2.1-.3s0-.2-.1-.3c-3.1-2.9-7.8-2.9-10.9 0-.1.1-.1.2-.1.3s0 .2.1.3L31.2 8c.1.1.3.1.5 0 1-.9 2.3-1.4 3.6-1.4m2.6 2.6c0 .1 0 .2-.1.3l-2.2 2.3c-.1.1-.2.1-.2.1-.1 0-.2 0-.2-.1L33 9.5c-.1-.1-.1-.2-.1-.3s0-.2.1-.3c1.4-1.2 3.5-1.2 4.9 0z" style="fill-rule:evenodd;clip-rule:evenodd"/><path d="M52.3 4c0-1.9 1.6-3.5 3.5-3.5h17c1.9 0 3.5 1.6 3.5 3.5v5c0 1.9-1.6 3.5-3.5 3.5h-17c-1.9 0-3.5-1.6-3.5-3.5z" style="opacity:.35;fill:none;stroke:#000"/><path d="M77.8 5v4.2c.8-.4 1.4-1.2 1.4-2.1s-.6-1.7-1.4-2.1" style="opacity:.4"/><path d="M53.8 4c0-1.1.9-2 2-2h17c1.1 0 2 .9 2 2v5c0 1.1-.9 2-2 2h-17c-1.1 0-2-.9-2-2z"/></svg>