<svg width="126" height="14" viewBox="0 0 126 14" fill="none" xmlns="http://www.w3.org/2000/svg"><path fill-rule="evenodd" clip-rule="evenodd" d="M38.615 2.033c0-.633-.477-1.146-1.067-1.146h-1.066c-.59 0-1.067.513-1.067 1.146v9.934c0 .633.478 1.146 1.067 1.146h1.066c.59 0 1.067-.513 1.067-1.146zm-7.434 1.299h1.067c.589 0 1.066.526 1.066 1.174v7.433c0 .649-.477 1.174-1.066 1.174H31.18c-.59 0-1.067-.525-1.067-1.174V4.506c0-.649.478-1.174 1.067-1.174m-4.332 2.649h-1.066c-.59 0-1.067.532-1.067 1.189v4.754c0 .657.477 1.19 1.067 1.19h1.066c.59 0 1.067-.533 1.067-1.19V7.17c0-.657-.478-1.189-1.067-1.189m-5.3 2.445h-1.067c-.59 0-1.067.525-1.067 1.172v2.343c0 .647.478 1.172 1.067 1.172h1.067c.589 0 1.066-.524 1.066-1.172V9.598c0-.647-.477-1.172-1.066-1.172m32.638-5.124c2.487 0 4.88.922 6.682 2.576a.355.355 0 0 0 .486-.004l1.298-1.263a.34.34 0 0 0-.003-.494c-4.731-4.375-12.195-4.375-16.926 0a.34.34 0 0 0-.003.494l1.298 1.263c.133.13.35.132.486.004 1.803-1.654 4.195-2.576 6.682-2.576m-.003 4.22c1.357 0 2.666.512 3.672 1.436.137.131.35.129.484-.006l1.287-1.32a.367.367 0 0 0-.005-.518 7.9 7.9 0 0 0-10.873 0 .367.367 0 0 0-.005.519l1.287 1.319a.34.34 0 0 0 .483.006 5.43 5.43 0 0 1 3.67-1.436m2.525 2.794a.4.4 0 0 1-.103.28l-2.177 2.456a.32.32 0 0 1-.241.112.32.32 0 0 1-.242-.112l-2.177-2.455a.4.4 0 0 1-.102-.281.4.4 0 0 1 .113-.276c1.39-1.314 3.426-1.314 4.816 0 .07.07.11.17.113.276" fill="#fff"/><rect opacity=".35" x="70.257" y="1" width="24" height="12" rx="3.8" stroke="#fff"/><path opacity=".4" d="M95.757 5.281v4.076a2.21 2.21 0 0 0 1.328-2.038c0-.89-.523-1.693-1.328-2.038" fill="#fff"/><rect x="71.757" y="2.5" width="21" height="9" rx="2.5" fill="#fff"/></svg>