<svg width="29" height="28" viewBox="0 0 29 28" fill="none" xmlns="http://www.w3.org/2000/svg"><path d="M22.556 7.278h-1.223V1.167H6.667v6.111H5.444A2.45 2.45 0 0 0 3 9.723v14.666c0 1.345 1.1 2.445 2.444 2.445h17.112c1.344 0 2.444-1.1 2.444-2.445V9.723c0-1.345-1.1-2.445-2.444-2.445M9.11 3.611h9.778v3.667H9.11zM14 23.167a6.113 6.113 0 0 1-6.111-6.111A6.113 6.113 0 0 1 14 10.945a6.113 6.113 0 0 1 6.111 6.11A6.113 6.113 0 0 1 14 23.168" fill="#fff"/><path d="M14.611 14H13.39v3.313l2.004 2.004.868-.868-1.65-1.65z" fill="#fff"/><path d="M22.556 7.278h-1.223V1.167H6.667v6.111H5.444A2.45 2.45 0 0 0 3 9.723v14.666c0 1.345 1.1 2.445 2.444 2.445h17.112c1.344 0 2.444-1.1 2.444-2.445V9.723c0-1.345-1.1-2.445-2.444-2.445ZM9.11 3.611h9.778v3.667H9.11zM14 23.167a6.113 6.113 0 0 1-6.111-6.111A6.113 6.113 0 0 1 14 10.945a6.113 6.113 0 0 1 6.111 6.11A6.113 6.113 0 0 1 14 23.168Z" stroke="#fff"/><path d="M14.611 14H13.39v3.313l2.004 2.004.868-.868-1.65-1.65z" stroke="#fff"/></svg>