<svg width="29" height="28" viewBox="0 0 29 28" fill="none" xmlns="http://www.w3.org/2000/svg"><g clip-path="url(#a)"><path d="m5.999 8.316-.288.66a.59.59 0 0 1-1.089 0l-.288-.66A5.1 5.1 0 0 0 1.746 5.69l-.887-.394c-.479-.213-.479-.91 0-1.124l.837-.372a5.1 5.1 0 0 0 2.626-2.714l.296-.713a.59.59 0 0 1 1.098 0l.295.713A5.1 5.1 0 0 0 8.637 3.8l.837.372c.48.213.48.91 0 1.124l-.886.394a5.1 5.1 0 0 0-2.589 2.626m-1.925 16.9C5.27 17.991 7.863 2.328 25 2.328c-1.745 3.5-2.917 5.25-4.083 6.417L19.75 9.913l1.75 1.166c-1.167 3.5-4.667 7.584-9.333 8.167q-4.67.584-5.836 6.417H4z" fill="#fff"/></g></svg>