<svg width="29" height="28" viewBox="0 0 29 28" fill="none" xmlns="http://www.w3.org/2000/svg"><g clip-path="url(#a)"><path d="M9.625 2.611A10.5 10.5 0 0 0 8.667 7c0 5.799 4.7 10.5 10.5 10.5 1.566 0 3.053-.343 4.389-.959-1.16 5.222-5.819 9.126-11.39 9.126C5.724 25.667.5 20.443.5 14 .5 8.43 4.404 3.77 9.625 2.61m9.733.062.975.244v1.166l-.975.244a2.33 2.33 0 0 0-1.698 1.698L17.418 7H16.25l-.244-.975a2.33 2.33 0 0 0-1.698-1.698l-.975-.244V2.917l.975-.244A2.33 2.33 0 0 0 16.006.975L16.25 0h1.167l.243.975a2.33 2.33 0 0 0 1.698 1.698m5.834 5.833.975.244v1.167l-.975.244a2.33 2.33 0 0 0-1.698 1.697l-.244.975h-1.167l-.243-.975a2.33 2.33 0 0 0-1.698-1.697l-.975-.244V8.75l.975-.244a2.33 2.33 0 0 0 1.698-1.698l.243-.975h1.167l.244.975a2.33 2.33 0 0 0 1.698 1.698" fill="#fff"/></g></svg>