<svg width="22" height="22" viewBox="0 0 22 22" fill="none" xmlns="http://www.w3.org/2000/svg">
<path d="M2.98197 11.2316C2.98197 15.788 6.67563 19.4816 11.232 19.4816C15.7883 19.4816 19.482 15.788 19.482 11.2316C19.482 6.67529 15.7883 2.98164 11.232 2.98164C6.67563 2.98164 2.98197 6.67529 2.98197 11.2316ZM5.07425 1.83301L1.83334 5.07391L3.1297 6.37028L6.37061 3.12937L5.07425 1.83301ZM20.6306 5.07391L17.3897 1.83301L16.0933 3.12937L19.3343 6.37028L20.6306 5.07391ZM10.3152 7.56486H12.1485V10.3149H14.8985V12.1482H12.1485V14.8982H10.3152V12.1482H7.5652V10.3149H10.3152V7.56486Z" fill="white"/>
</svg>
