<svg width="25" height="25" viewBox="0 0 25 25" fill="none" xmlns="http://www.w3.org/2000/svg">
<path d="M2.72329 14.7013C2.53363 13.5598 2.53989 12.413 2.72421 11.3041C3.87131 11.3321 4.90294 10.7817 5.30389 9.81374C5.70485 8.84575 5.36452 7.72713 4.53369 6.93572C5.18743 6.02131 5.99389 5.206 6.9352 4.53291C7.72665 5.36421 8.84561 5.70483 9.81386 5.30377C10.7821 4.90271 11.3325 3.87062 11.3043 2.72317C12.4458 2.53351 13.5926 2.53977 14.7014 2.72409C14.6736 3.87118 15.2239 4.90281 16.192 5.30377C17.1599 5.70473 18.2785 5.36438 19.07 4.53357C19.9844 5.18731 20.7997 5.99376 21.4728 6.93508C20.6414 7.72653 20.3008 8.84549 20.7019 9.81374C21.1029 10.782 22.135 11.3324 23.2825 11.3041C23.4722 12.4457 23.4659 13.5925 23.2815 14.7013C22.1345 14.6735 21.1028 15.2238 20.7019 16.1917C20.3009 17.1598 20.6412 18.2784 21.4721 19.0698C20.8183 19.9842 20.0119 20.7996 19.0706 21.4726C18.2792 20.6413 17.1602 20.3007 16.192 20.7017C15.2236 21.1028 14.6733 22.1349 14.7014 23.2824C13.5599 23.4721 12.4131 23.4658 11.3044 23.2814C11.3322 22.1344 10.7819 21.1027 9.81386 20.7017C8.84587 20.3008 7.72726 20.6411 6.93584 21.472C6.02143 20.8182 5.20612 20.0117 4.53303 19.0705C5.36433 18.279 5.70495 17.1601 5.30389 16.1917C4.90283 15.2235 3.87076 14.6732 2.72329 14.7013ZM13.0029 16.1278C14.7287 16.1278 16.1279 14.7286 16.1279 13.0028C16.1279 11.2769 14.7287 9.87777 13.0029 9.87777C11.277 9.87777 9.87789 11.2769 9.87789 13.0028C9.87789 14.7286 11.277 16.1278 13.0029 16.1278Z" fill="#DBDADD"/>
</svg>
